<?xml version="1.0" encoding="UTF-8" standalone="no"?><!-- Generator: Gravit.io --><svg xmlns="http://www.w3.org/2000/svg" xmlns:xlink="http://www.w3.org/1999/xlink" style="isolation:isolate" viewBox="0 0 512 512" width="512pt" height="512pt"><defs><clipPath id="_clipPath_H5SUpvokbg6AVZ5VAntjxYjNEoNCPKMG"><rect width="512" height="512"/></clipPath></defs><g clip-path="url(#_clipPath_H5SUpvokbg6AVZ5VAntjxYjNEoNCPKMG)"><path d=" M 149.9 302.2 C 110.8 302.2 79.2 333.2 79.2 371.5 C 79.2 401.8 51.9 417.7 32 417.7 C 53.7 446 90.7 464 126.3 464 C 178.4 464 220.6 422.6 220.6 371.6 C 220.6 333.2 189 302.2 149.9 302.2 L 149.9 302.2 Z  M 473.1 85.7 L 441.5 54.7 C 432.3 45.7 417.5 45.7 408.3 54.7 L 197 261.8 L 261.8 325.3 L 473 118.3 C 482.3 109.3 482.3 94.7 473.1 85.7 L 473.1 85.7 Z " fill="rgb(52,152,219)"/></g></svg>