<?xml version="1.0" encoding="UTF-8" standalone="no"?><!-- Generator: Gravit.io --><svg xmlns="http://www.w3.org/2000/svg" xmlns:xlink="http://www.w3.org/1999/xlink" style="isolation:isolate" viewBox="0 0 511 511" width="511pt" height="511pt"><defs><clipPath id="_clipPath_OtOcRWQG2yOHUDYZ6CPSzmWFTgI4pAKp"><rect width="511" height="511"/></clipPath></defs><g clip-path="url(#_clipPath_OtOcRWQG2yOHUDYZ6CPSzmWFTgI4pAKp)"><path d=" M 499.182 64.089 C 496.188 62.265 492.473 62.074 489.307 63.587 L 408.142 101.82 C 379.526 115.298 360.321 143.072 357.814 174.604 L 355.721 200.533 L 313.666 270.385 L 313.666 240.561 C 313.666 240.463 313.616 240.381 313.616 240.276 C 313.6 239.251 313.436 238.229 313.121 237.251 L 293.553 178.549 L 333.507 98.67 C 335.261 95.115 334.855 90.869 332.458 87.707 L 269.643 3.953 C 265.838 -0.671 259.004 -1.333 254.376 2.472 C 253.834 2.916 253.339 3.415 252.895 3.953 L 190.076 87.707 C 187.698 90.881 187.312 95.122 189.082 98.67 L 229.035 178.549 L 209.468 237.251 C 209.152 238.229 208.988 239.251 208.973 240.276 L 208.973 240.561 L 208.973 282.342 L 143.749 183.344 C 143.667 183.231 143.542 183.165 143.468 183.064 C 142.837 182.19 142.08 181.422 141.219 180.779 C 141.02 180.635 140.841 180.467 140.63 180.331 C 140.423 180.194 140.388 180.12 140.256 180.046 L 101.874 157.851 L 85.94 133.668 L 62.907 98.701 C 60.264 94.694 55.231 92.998 50.701 94.588 L 9.964 108.877 C 4.518 110.814 1.668 116.799 3.605 122.245 C 3.886 123.044 4.264 123.801 4.732 124.506 L 33.531 168.229 L 49.414 192.401 L 54.646 236.436 C 54.673 236.576 54.708 236.716 54.751 236.853 C 54.798 237.075 54.853 237.297 54.919 237.512 C 55.157 238.619 55.574 239.683 56.155 240.654 C 56.229 240.759 56.229 240.896 56.303 241.001 C 56.377 241.102 211.99 476.965 212.743 477.604 C 220.4 497.717 239.686 511.008 261.207 511 C 265.48 510.996 269.737 510.478 273.885 509.452 C 287.374 506.142 298.98 497.581 306.119 485.663 L 445.358 254.674 L 467.342 240.759 C 478.894 233.414 488.586 223.5 495.674 211.789 C 504.668 196.892 509.042 179.656 508.235 162.272 L 504.153 72.635 C 504.028 69.134 502.165 65.926 499.182 64.089 L 499.182 64.089 Z  M 423.354 250.65 L 407.155 277.547 L 353.354 245.095 L 369.573 218.198 L 423.354 250.65 Z  M 229.912 409.293 L 229.912 251.028 L 292.727 251.028 L 292.727 305.114 L 229.912 409.293 Z  M 247.932 188.214 L 274.711 188.214 L 288.665 230.089 L 233.975 230.089 L 247.932 188.214 Z  M 261.32 114.927 C 255.538 114.927 250.852 110.241 250.852 104.46 C 250.852 98.678 255.538 93.992 261.32 93.992 C 267.101 93.992 271.791 98.678 271.791 104.46 C 271.791 110.241 267.101 114.927 261.32 114.927 Z  M 261.32 27.688 L 311.877 95.091 L 275.787 167.274 L 271.787 167.274 L 271.787 133.941 C 288.142 128.159 296.715 110.214 290.93 93.859 C 285.148 77.505 267.207 68.935 250.852 74.717 C 234.497 80.499 225.928 98.444 231.71 114.799 C 234.871 123.742 241.908 130.779 250.852 133.941 L 250.852 167.274 L 246.852 167.274 L 210.762 95.091 L 261.32 27.688 Z  M 115.098 189.687 L 112.018 191.719 L 73.461 217.118 L 69.913 187.45 C 69.718 185.836 69.153 184.292 68.256 182.935 L 56.743 165.454 L 74.225 153.937 L 85.741 171.418 C 86.638 172.775 87.835 173.902 89.238 174.717 L 115.098 189.687 Z  M 49.925 117.021 L 62.697 136.421 L 45.215 147.937 L 29.512 124.175 L 49.925 117.021 Z  M 105.8 220.869 L 131.975 203.582 L 208.973 320.389 L 208.973 434.575 L 79.574 238.163 L 105.8 220.869 Z  M 288.216 474.786 C 279.339 489.69 260.064 494.579 245.16 485.702 C 230.255 476.829 225.37 457.55 234.244 442.646 C 234.31 442.54 234.372 442.439 234.435 442.334 L 313.487 311.227 L 313.666 311.227 L 313.666 310.946 L 342.54 263.048 L 369.436 279.297 L 396.372 295.48 L 288.216 474.786 Z  M 477.791 200.935 C 472.391 209.855 464.999 217.41 456.196 223.001 L 437.6 234.779 L 407.241 216.502 L 376.879 198.221 L 378.606 176.237 C 380.524 152.198 395.163 131.029 416.976 120.748 L 483.978 89.204 L 485.311 118.382 C 484.262 118.269 483.202 118.311 482.169 118.518 L 456.812 124.803 C 433.214 130.565 414.945 149.239 409.701 172.958 C 408.438 178.6 411.986 184.194 417.627 185.457 C 418.38 185.633 419.148 185.723 419.919 185.723 C 424.816 185.715 429.058 182.315 430.126 177.535 C 433.666 161.586 445.951 149.029 461.818 145.142 L 486.274 139.079 L 487.373 163.161 C 487.985 176.42 484.652 189.567 477.791 200.935 L 477.791 200.935 Z " fill="rgb(255,255,255)"/></g></svg>